<?xml version="1.0" standalone="no"?>
<!DOCTYPE svg PUBLIC "-//W3C//DTD SVG 20010904//EN"
 "http://www.w3.org/TR/2001/REC-SVG-20010904/DTD/svg10.dtd">
<svg version="1.0" xmlns="http://www.w3.org/2000/svg"
 width="367.000000pt" height="367.000000pt" viewBox="0 0 367.000000 367.000000"
 preserveAspectRatio="xMidYMid meet">
<metadata>
Created by potrace 1.14, written by Peter Selinger 2001-2017
</metadata>
<g transform="translate(0.000000,367.000000) scale(0.100000,-0.100000)"
fill="#000000" stroke="none">
<path d="M1770 3573 c-55 -8 -118 -28 -180 -56 -60 -28 -117 -83 -732 -696
-587 -587 -670 -673 -697 -729 -92 -185 -83 -394 25 -557 18 -27 327 -343 686
-701 610 -608 658 -653 723 -684 88 -43 167 -59 265 -55 90 4 151 20 241 65
57 28 136 104 702 669 588 585 677 679 715 751 51 95 75 269 51 365 -5 22 -12
49 -14 60 -7 30 -45 103 -82 155 -43 62 -1277 1290 -1334 1328 -91 61 -263
101 -369 85z m315 -426 c54 -27 52 -25 713 -675 499 -491 497 -488 496 -618 0
-57 -6 -82 -27 -125 -28 -57 -34 -64 -346 -388 -108 -112 -214 -223 -236 -246
-175 -183 -440 -458 -484 -501 -79 -78 -128 -99 -226 -99 -142 1 -96 -36 -681
556 l-75 75 20 23 c19 22 630 649 663 681 20 18 44 -10 -272 320 -92 96 -191
200 -219 230 -28 30 -81 84 -116 121 -36 37 -65 69 -65 71 0 9 516 525 553
553 80 60 209 69 302 22z"/>
</g>
</svg>
